# xmcd
#
# Track frame offsets:
#	180
#	26657
#	67964
#	101303
#	132092
#	168832
#	242126
#
# Disc length: 3945 seconds
#
# Revision: 1
# Processed by: cddbd v1.4PL0 Copyright (c) Steve Scherf et al.
# Submitted via: EasyCDDAExtractor 5.0.7
#
DISCID=4f0f6707
DTITLE=Various Artist - Tan Co Giao Duyen - Dua Em Ve Que Me
DYEAR=1900
DGENRE=VongCo
TTITLE0=Chau Thanh and Cam Tien - Dua Em Ve Que Me
TTITLE1=Thanh Vu - Goi Nho Que Huong
TTITLE2=Kim Tu Long and Ngoc Huyen - Noi Buon Hoa Phuong
TTITLE3=Chau Thanh and Phuong Hang - Huong Tham
TTITLE4=Thanh Vu - Mua Mua Qua Mau
TTITLE5=Thanh Tuan and Phuong Lien - Tieng Dan Chai
TTITLE6=Tai Linh and Minh Vuong - Thoi Con Gai
EXTD=
EXTT0=
EXTT1=
EXTT2=
EXTT3=
EXTT4=
EXTT5=
EXTT6=
PLAYORDER=
